REM MD5 01fe417695533bcb091a527f83d3c59a
FILE "Rescue Heroes - Molten Menace (USA).bin" BINARY
  TRACK 01 MODE2/2352
    INDEX 01 00:00:00
  TRACK 02 AUDIO
    INDEX 00 11:53:51
    INDEX 01 11:55:51
  TRACK 03 AUDIO
    INDEX 00 12:50:12
    INDEX 01 12:52:12
  TRACK 04 AUDIO
    INDEX 00 12:57:08
    INDEX 01 12:59:08
  TRACK 05 AUDIO
    INDEX 00 15:21:54
    INDEX 01 15:23:54
  TRACK 06 AUDIO
    INDEX 00 15:30:12
    INDEX 01 15:32:12
  TRACK 07 AUDIO
    INDEX 00 18:09:29
    INDEX 01 18:11:29
  TRACK 08 AUDIO
    INDEX 00 18:16:15
    INDEX 01 18:18:15
  TRACK 09 AUDIO
    INDEX 00 20:48:39
    INDEX 01 20:50:39
  TRACK 10 AUDIO
    INDEX 00 20:55:11
    INDEX 01 20:57:11
  TRACK 11 AUDIO
    INDEX 00 22:22:60
    INDEX 01 22:24:60
  TRACK 12 AUDIO
    INDEX 00 22:33:58
    INDEX 01 22:35:58
  TRACK 13 AUDIO
    INDEX 00 24:51:09
    INDEX 01 24:53:09
  TRACK 14 AUDIO
    INDEX 00 24:57:10
    INDEX 01 24:59:10
  TRACK 15 AUDIO
    INDEX 00 26:14:38
    INDEX 01 26:16:38
  TRACK 16 AUDIO
    INDEX 00 26:25:41
    INDEX 01 26:27:41
  TRACK 17 AUDIO
    INDEX 00 26:33:38
    INDEX 01 26:35:38
  TRACK 18 AUDIO
    INDEX 00 26:53:07
    INDEX 01 26:55:07
  TRACK 19 AUDIO
    INDEX 00 27:06:21
    INDEX 01 27:08:21
  TRACK 20 AUDIO
    INDEX 00 27:21:12
    INDEX 01 27:23:12
  TRACK 21 AUDIO
    INDEX 00 27:29:14
    INDEX 01 27:31:14
  TRACK 22 AUDIO
    INDEX 00 27:36:20
    INDEX 01 27:38:20
  TRACK 23 AUDIO
    INDEX 00 27:48:22
    INDEX 01 27:50:22
  TRACK 24 AUDIO
    INDEX 00 28:04:27
    INDEX 01 28:06:27
  TRACK 25 AUDIO
    INDEX 00 28:15:64
    INDEX 01 28:17:64
  TRACK 26 AUDIO
    INDEX 00 28:25:59
    INDEX 01 28:27:59
  TRACK 27 AUDIO
    INDEX 00 28:35:39
    INDEX 01 28:37:39
  TRACK 28 AUDIO
    INDEX 00 28:43:63
    INDEX 01 28:45:63
  TRACK 29 AUDIO
    INDEX 00 28:51:08
    INDEX 01 28:53:08
  TRACK 30 AUDIO
    INDEX 00 29:05:68
    INDEX 01 29:07:68
  TRACK 31 AUDIO
    INDEX 00 29:16:27
    INDEX 01 29:18:27
  TRACK 32 AUDIO
    INDEX 00 29:25:41
    INDEX 01 29:27:41
  TRACK 33 AUDIO
    INDEX 00 29:41:49
    INDEX 01 29:43:49
  TRACK 34 AUDIO
    INDEX 00 30:04:44
    INDEX 01 30:06:44
  TRACK 35 AUDIO
    INDEX 00 30:10:57
    INDEX 01 30:12:57
  TRACK 36 AUDIO
    INDEX 00 30:20:63
    INDEX 01 30:22:63
  TRACK 37 AUDIO
    INDEX 00 30:27:64
    INDEX 01 30:29:64
  TRACK 38 AUDIO
    INDEX 00 30:40:72
    INDEX 01 30:42:72
  TRACK 39 AUDIO
    INDEX 00 30:53:73
    INDEX 01 30:55:73
  TRACK 40 AUDIO
    INDEX 00 31:01:29
    INDEX 01 31:03:29
  TRACK 41 AUDIO
    INDEX 00 31:08:51
    INDEX 01 31:10:51
  TRACK 42 AUDIO
    INDEX 00 31:25:15
    INDEX 01 31:27:15
  TRACK 43 AUDIO
    INDEX 00 31:41:32
    INDEX 01 31:43:32
  TRACK 44 AUDIO
    INDEX 00 31:52:16
    INDEX 01 31:54:16
  TRACK 45 AUDIO
    INDEX 00 32:00:23
    INDEX 01 32:02:23
  TRACK 46 AUDIO
    INDEX 00 32:09:28
    INDEX 01 32:11:28
  TRACK 47 AUDIO
    INDEX 00 32:16:30
    INDEX 01 32:18:30
  TRACK 48 AUDIO
    INDEX 00 32:29:07
    INDEX 01 32:31:07
  TRACK 49 AUDIO
    INDEX 00 32:40:37
    INDEX 01 32:42:37
  TRACK 50 AUDIO
    INDEX 00 32:56:08
    INDEX 01 32:58:08
  TRACK 51 AUDIO
    INDEX 00 33:04:50
    INDEX 01 33:06:50
  TRACK 52 AUDIO
    INDEX 00 33:15:34
    INDEX 01 33:17:34
  TRACK 53 AUDIO
    INDEX 00 33:22:36
    INDEX 01 33:24:36
  TRACK 54 AUDIO
    INDEX 00 33:29:38
    INDEX 01 33:31:38
  TRACK 55 AUDIO
    INDEX 00 33:36:39
    INDEX 01 33:38:39
  TRACK 56 AUDIO
    INDEX 00 33:43:41
    INDEX 01 33:45:41
  TRACK 57 AUDIO
    INDEX 00 33:50:43
    INDEX 01 33:52:43
  TRACK 58 AUDIO
    INDEX 00 33:57:44
    INDEX 01 33:59:44
  TRACK 59 AUDIO
    INDEX 00 34:04:45
    INDEX 01 34:06:45
  TRACK 60 AUDIO
    INDEX 00 34:11:53
    INDEX 01 34:13:53
  TRACK 61 AUDIO
    INDEX 00 34:18:58
    INDEX 01 34:20:58
  TRACK 62 AUDIO
    INDEX 00 34:25:68
    INDEX 01 34:27:68
  TRACK 63 AUDIO
    INDEX 00 34:32:69
    INDEX 01 34:34:69
  TRACK 64 AUDIO
    INDEX 00 34:40:01
    INDEX 01 34:42:01
  TRACK 65 AUDIO
    INDEX 00 34:47:03
    INDEX 01 34:49:03
  TRACK 66 AUDIO
    INDEX 00 34:54:04
    INDEX 01 34:56:04
  TRACK 67 AUDIO
    INDEX 00 35:01:05
    INDEX 01 35:03:05
  TRACK 68 AUDIO
    INDEX 00 35:08:09
    INDEX 01 35:10:09
  TRACK 69 AUDIO
    INDEX 00 35:15:16
    INDEX 01 35:17:16
  TRACK 70 AUDIO
    INDEX 00 35:22:19
    INDEX 01 35:24:19
  TRACK 71 AUDIO
    INDEX 00 35:29:20
    INDEX 01 35:31:20
  TRACK 72 AUDIO
    INDEX 00 35:36:24
    INDEX 01 35:38:24
  TRACK 73 AUDIO
    INDEX 00 35:43:25
    INDEX 01 35:45:25
  TRACK 74 AUDIO
    INDEX 00 35:50:28
    INDEX 01 35:52:28
  TRACK 75 AUDIO
    INDEX 00 35:57:29
    INDEX 01 35:59:29
  TRACK 76 AUDIO
    INDEX 00 36:04:35
    INDEX 01 36:06:35
  TRACK 77 AUDIO
    INDEX 00 36:11:36
    INDEX 01 36:13:36
  TRACK 78 AUDIO
    INDEX 00 36:18:41
    INDEX 01 36:20:41
  TRACK 79 AUDIO
    INDEX 00 36:25:43
    INDEX 01 36:27:43
  TRACK 80 AUDIO
    INDEX 00 36:32:47
    INDEX 01 36:34:47
  TRACK 81 AUDIO
    INDEX 00 36:39:60
    INDEX 01 36:41:60
  TRACK 82 AUDIO
    INDEX 00 36:46:67
    INDEX 01 36:48:67
  TRACK 83 AUDIO
    INDEX 00 36:53:68
    INDEX 01 36:55:68
  TRACK 84 AUDIO
    INDEX 00 37:00:73
    INDEX 01 37:02:73
  TRACK 85 AUDIO
    INDEX 00 37:08:00
    INDEX 01 37:10:00
  TRACK 86 AUDIO
    INDEX 00 37:15:01
    INDEX 01 37:17:01
  TRACK 87 AUDIO
    INDEX 00 37:22:02
    INDEX 01 37:24:02
  TRACK 88 AUDIO
    INDEX 00 37:29:03
    INDEX 01 37:31:03
REM LEADOUT 40:32:35
